<?xml version="1.0" standalone="no"?><!DOCTYPE svg PUBLIC "-//W3C//DTD SVG 1.1//EN" "http://www.w3.org/Graphics/SVG/1.1/DTD/svg11.dtd"><svg t="1685424895608" class="icon" viewBox="0 0 1024 1024" version="1.1" xmlns="http://www.w3.org/2000/svg" p-id="2822" xmlns:xlink="http://www.w3.org/1999/xlink" width="128" height="128"><path d="M510.580163 67.222909C264.152484 67.222909 64.383234 266.99216 64.383234 513.419837 64.383234 759.84479 264.152484 959.616766 510.580163 959.616766 757.00784 959.616766 956.777091 759.84479 956.777091 513.419837 956.777091 266.99216 757.00784 67.222909 510.580163 67.222909L510.580163 67.222909ZM708.265985 622.416224C708.265985 622.416224 694.138464 660.952144 668.242097 695.571928 668.242097 695.571928 714.528532 711.312777 710.61921 752.208735 710.61921 752.208735 712.173945 797.827492 611.737464 794.690767 611.737464 794.690767 541.110759 789.189919 519.919478 759.291572L501.250384 759.291572C480.060466 789.191281 409.431037 794.690767 409.431037 794.690767 308.974116 797.827492 310.547928 752.208735 310.547928 752.208735 306.620891 711.312777 352.926403 695.571928 352.926403 695.571928 327.032761 660.952144 312.902515 622.416224 312.902515 622.416224 250.113533 723.893738 256.400607 608.254638 256.400607 608.254638 268.174903 539.814919 317.611689 494.976937 317.611689 494.976937 310.54929 432.839281 336.448383 421.817145 336.448383 421.817145 341.875652 229.56404 507.113688 232.926957 510.584251 233.020977 514.054813 232.931045 679.271047 229.562678 684.717392 421.817145 684.717392 421.817145 710.613759 432.839281 703.552724 494.976937 703.552724 494.976937 752.993597 539.814919 764.765169 608.254638L764.770619 608.254638C764.771981 608.254638 771.033166 723.893738 708.265985 622.416224L708.265985 622.416224Z" fill="#ffffff" p-id="2823"></path></svg>