<?xml version="1.0" standalone="no"?><!DOCTYPE svg PUBLIC "-//W3C//DTD SVG 1.1//EN" "http://www.w3.org/Graphics/SVG/1.1/DTD/svg11.dtd"><svg t="1685424957966" class="icon" viewBox="0 0 1024 1024" version="1.1" xmlns="http://www.w3.org/2000/svg" p-id="3389" xmlns:xlink="http://www.w3.org/1999/xlink" width="128" height="128"><path d="M512 58.181818C260.654545 58.181818 58.181818 260.654545 58.181818 512S260.654545 965.818182 512 965.818182 965.818182 763.345455 965.818182 512 763.345455 58.181818 512 58.181818z m144.290909 505.018182s2.327273 11.636364 2.327273 20.945455c0 0-72.145455 2.327273-130.327273 0-32.581818 0-65.163636-6.981818-65.163636-6.981819l169.890909-118.690909s-60.509091-9.309091-123.345455-11.636363c-65.163636-2.327273-134.981818 2.327273-148.945454 6.981818-6.981818 2.327273 44.218182 0 100.072727 6.981818 41.890909 2.327273 90.763636 11.636364 90.763636 11.636364l-169.890909 125.672727s72.145455 2.327273 139.636364 2.327273c72.145455 0 139.636364-9.309091 139.636364-6.981819 11.636364 53.527273 34.909091 162.909091 27.927272 172.218182-6.981818 9.309091-176.872727-97.745455-176.872727-97.745454s-169.890909 104.727273-183.854545 95.418182c-9.309091-9.309091 34.909091-202.472727 34.90909-202.472728S209.454545 435.2 214.109091 418.909091c6.981818-16.290909 202.472727-27.927273 202.472727-27.927273S493.381818 209.454545 512 209.454545c18.618182 0 90.763636 183.854545 90.763636 183.854546s197.818182 11.636364 202.472728 27.927273c6.981818 16.290909-148.945455 141.963636-148.945455 141.963636z" fill="#ffffff" p-id="3390"></path></svg>