<?xml version="1.0" standalone="no"?><!DOCTYPE svg PUBLIC "-//W3C//DTD SVG 1.1//EN" "http://www.w3.org/Graphics/SVG/1.1/DTD/svg11.dtd"><svg t="1685424778109" class="icon" viewBox="0 0 1024 1024" version="1.1" xmlns="http://www.w3.org/2000/svg" p-id="2407" width="128" height="128" xmlns:xlink="http://www.w3.org/1999/xlink"><path d="M569.750741 512.260928C559.571685 512.260928 549.387177 521.726385 549.387177 533.377522 549.387177 542.844071 559.566233 552.311711 569.750741 552.311711 585.029684 552.311711 595.93823 542.844071 595.93823 533.377522 595.93823 521.726385 585.029684 512.260928 569.750741 512.260928M502.832853 413.940268C518.834743 413.940268 529.020341 403.747706 529.020341 388.45013 529.020341 372.427634 518.835834 362.962177 502.832853 362.962177 487.558271 362.962177 473.008818 372.428725 473.008818 388.45013 473.007727 403.748798 487.558271 413.940268 502.832853 413.940268M510.834343 65.628918C264.264565 65.628918 64.383234 265.754008 64.383234 512.62448 64.383234 759.492768 264.264565 959.616766 510.834343 959.616766 757.401939 959.616766 957.28218 759.492768 957.28218 512.62448 957.283271 265.754008 757.401939 65.628918 510.834343 65.628918M426.457765 625.868247C399.541875 625.868247 379.90235 621.502345 354.44435 614.21711L280.978498 651.362751 302.075914 588.726972C250.431517 552.316078 219.877992 506.434268 219.877992 450.355529 219.877992 351.309948 312.984461 275.568824 426.458855 275.568824 526.837324 275.568824 616.307246 335.288543 633.763755 419.771295 626.490664 418.310535 619.942701 417.586706 614.124228 417.586706 515.199288 417.586706 438.82529 491.868163 438.82529 581.447196 438.82529 596.739312 441.007217 610.57613 444.644854 625.144417 438.82529 625.868247 432.277327 625.868247 426.457765 625.868247M729.78055 697.239102 744.325641 749.679045 689.044699 718.363338C667.951645 722.72924 647.583718 729.285187 626.490664 729.285187 529.019251 729.285187 451.916854 662.285692 451.916854 579.262607 451.916854 496.239523 529.020341 429.237844 626.490664 429.237844 718.867642 429.237844 801.789602 496.239523 801.789602 579.262607 801.789602 625.868247 770.513131 667.380881 729.78055 697.239102M358.810386 362.962177C343.534714 362.962177 327.532823 372.428725 327.532823 388.45013 327.532823 403.747706 343.534714 413.944635 358.810386 413.944635 373.359839 413.944635 384.996784 403.747706 384.996784 388.45013 384.996784 372.428725 373.359839 362.962177 358.810386 362.962177M683.954625 512.260928C673.041718 512.260928 663.586699 521.726385 663.586699 533.377522 663.586699 542.844071 673.041718 552.311711 683.954625 552.311711 698.499717 552.311711 709.412624 542.844071 709.412624 533.377522 709.412624 521.726385 698.499717 512.260928 683.954625 512.260928" fill="#ffffff" p-id="2408"></path></svg>